<?xml version="1.0" encoding="utf-8"?>
<!-- Generator: Adobe Illustrator 25.3.0, SVG Export Plug-In . SVG Version: 6.00 Build 0)  -->
<svg version="1.1" id="Calque_1" xmlns="http://www.w3.org/2000/svg" xmlns:xlink="http://www.w3.org/1999/xlink" x="0px" y="0px"
	 viewBox="0 0 92.76 112.83" style="enable-background:new 0 0 92.76 112.83;" xml:space="preserve">
<style type="text/css">
	.st0{fill:#E41714;}
	.st1{fill:#020303;}
	.st2{fill:#FFFFFF;}
	.st3{fill:#E4DCBE;}
	.st4{fill:#E3DCBE;}
</style>
<g>
	<path class="st0" d="M30.85,51.68c0.86,0.57,1.35,1.64,2.47,1.87c-0.21,0.33-0.54,0.2-0.82,0.2c-4.63,0.01-9.27-0.01-13.9,0.02
		c-0.65,0-0.92-0.1-0.91-0.84c0.04-4.75,0.02-9.49,0.02-14.24c0-0.26-0.06-0.54,0.19-0.73c0.19,1.2,1.25,1.78,1.89,2.66
		c0.3,0.55,0.33,1.14,0.33,1.75c0,2.56-0.01,5.12,0,7.68c0.01,1.19,0.11,1.29,1.3,1.3c2.56,0.02,5.12,0.01,7.68,0
		C29.7,51.35,30.3,51.38,30.85,51.68z"/>
	<path class="st0" d="M54.66,53.55c1.14-0.21,1.6-1.3,2.47-1.87c0.55-0.3,1.14-0.33,1.75-0.33c2.56,0,5.12,0.01,7.68,0
		c1.18-0.01,1.29-0.11,1.3-1.3c0.02-2.56,0.01-5.12,0-7.68c0-0.61,0.03-1.2,0.33-1.75c0.56-0.87,1.66-1.33,1.87-2.47
		c0.34,0.2,0.21,0.54,0.21,0.82c0.01,4.64,0,9.29,0.01,13.93c0,0.57-0.04,0.88-0.76,0.88c-4.76-0.03-9.51-0.02-14.27-0.02
		C55.04,53.75,54.8,53.8,54.66,53.55z"/>
	<path class="st1" d="M60.1,44.48c-1.22,1.27-2.43,2.55-3.65,3.82c-0.72-0.11-0.5-0.74-0.58-1.15C54.73,41.7,52.09,37.04,48.31,33
		c-0.68-0.73-1.59-1.19-2.21-1.79c0.63,5.87,3.38,10.86,7.55,15.14c0.53,0.54,1.16,0.96,1.74,1.44c0.3,0.25,0.74,0.44,0.59,0.98
		c-1.07,0.81-1.76,2.18-3.34,2.25c-2.5-0.25-4.93-0.94-7.46-1.03c-3.19-0.12-6.26,0.59-9.38,1.04c-1.69,0.2-2.49-1.16-3.56-2.03
		c-0.07-0.56,0.39-0.75,0.72-1.03c4.67-3.89,7.68-8.82,9.22-14.67c0.14-0.55,0.22-1.1,0.1-1.8c-1.55,0.97-2.74,2.23-3.87,3.55
		c-3.05,3.54-4.92,7.64-5.75,12.22c-0.07,0.37-0.11,0.75-0.28,1.09c-0.13,0.25-0.31,0.46-0.6,0.16c-1.14-1.19-2.28-2.38-3.41-3.58
		c-0.94-1.89-1.51-3.93-2.59-5.76c-1.17-1.99-2.48-3.87-4.15-5.47c-0.46-0.44-0.94-0.87-1.16-1.51c0-2.85,0-5.69,0-8.54
		c0.65-1.35,1.93-2.18,2.83-3.33c2.27-2.91,3.97-6.1,4.91-9.67c0.13-0.48,0.34-0.91,0.63-1.31c1.73-1.67,3.47-3.34,5.2-5.01
		c0.63-0.18,1.24-0.13,1.87,0.09c5.46,1.92,10.95,1.93,16.44,0.09c0.54-0.18,1.07-0.4,1.64-0.17c2.01,1.69,3.73,3.68,5.66,5.45
		c0.91,1.2,1.11,2.7,1.72,4.04c1.28,2.79,2.86,5.37,4.85,7.71c0.51,0.59,1.1,1.15,1.32,1.94l0.01,0.06c-0.18,0.9-0.06,1.8-0.08,2.71
		c-0.02,1.55-0.09,1.63-1.63,1.18c-1.71-0.49-3.42-0.95-5.19-1.12c-4.03-0.38-7.97,0.03-11.9,1.5c0.42,0.47,0.91,0.56,1.35,0.68
		c5.44,1.51,10.86,1.61,16.26-0.21c1.03-0.35,1.09-0.31,1.12,0.74c0.02,0.56-0.09,1.13,0.08,1.69c0,0.55,0,1.11,0,1.66
		c-0.09,0.54-0.34,0.97-0.72,1.36c-2.59,2.64-4.45,5.75-5.86,9.14C60.7,43.45,60.41,43.97,60.1,44.48z"/>
	<path class="st2" d="M31.76,48.51c0.65,0.18,0.41-0.34,0.45-0.6c1.13-6.98,4.5-12.62,10.11-16.93c0.05-0.04,0.13-0.03,0.27-0.06
		c0.22,2.26-0.51,4.31-1.4,6.27c-2.04,4.51-4.65,8.6-8.8,11.51c-0.08,0.05-0.1,0.18-0.15,0.28C31.99,48.92,31.82,48.77,31.76,48.51z
		"/>
	<path class="st2" d="M55.97,48.77c-1.27-1.27-2.74-2.32-3.92-3.7c-3.31-3.87-5.5-8.24-6.2-13.32c-0.02-0.15-0.04-0.3-0.04-0.45
		c0-0.11,0.02-0.22,0.05-0.42c1.92,0.95,3.29,2.45,4.51,4.08c2.94,3.93,5.28,8.15,5.86,13.14c0.01,0.08,0.14,0.14,0.21,0.21
		C56.39,48.56,56.2,48.68,55.97,48.77z"/>
	<path class="st2" d="M67.52,30.72c-0.28-0.78,0.33-1.92-0.32-2.3c-0.45-0.26-1.42,0.44-2.18,0.63c-5.02,1.31-10.02,1.17-15-0.21
		c-0.75-0.21-1.5-0.45-2.2-1.02c6.1-2.39,12.16-2.63,18.3-0.61c1.29,0.43,1.28,0.42,1.31-0.96c0.01-0.9,0.06-1.8,0.09-2.7
		C67.66,25.94,67.64,28.33,67.52,30.72z"/>
	<path class="st2" d="M45.82,24.84c0.88-7.38,4.51-13.16,10.3-17.67C55.32,14.57,51.86,20.45,45.82,24.84z"/>
	<path class="st2" d="M32.13,7.11c4.63,2.03,10.28,11.6,10.51,17.82C37.58,21.61,33.04,15.01,32.13,7.11z"/>
	<path class="st2" d="M37.41,24.01c-2.42-0.53-4.58-0.8-6.76-0.81c-2.18-0.02-4.34,0.34-6.72,0.75c3.06-3.3,5.23-6.89,6.69-11.25
		C32.13,17.03,34.25,20.64,37.41,24.01z"/>
	<path class="st2" d="M37.47,8.07c4.59,0.98,8.89,0.98,13.46,0.01c-3.07,3.37-5.25,6.93-6.72,11.32
		C42.75,15.02,40.58,11.43,37.47,8.07z"/>
	<path class="st2" d="M44.21,36.43c1.48,4.39,3.61,8.01,6.78,11.35c-4.56-1-8.85-1.08-13.21-0.16
		C40.57,44.36,42.76,40.8,44.21,36.43z"/>
	<path class="st2" d="M64.38,23.92c-4.57-0.99-8.82-0.93-13.37,0.12c3.15-3.39,5.3-6.99,6.79-11.36
		C59.25,16.96,61.31,20.55,64.38,23.92z"/>
	<path class="st2" d="M20.42,27.92c6.84-2.67,13.37-2.74,20.17-0.02C33.82,30.7,27.3,30.57,20.42,27.92z"/>
	<path class="st2" d="M30.65,43.06c-1.52-4.23-3.53-7.87-6.6-11.11c4.37,0.86,8.61,0.88,12.93,0.11
		C34.22,35.28,32.09,38.81,30.65,43.06z"/>
	<path class="st2" d="M64.26,31.97c-2.9,3.32-5.06,6.84-6.45,10.89c-1.47-3.97-3.52-7.54-6.52-10.87
		C55.71,32.8,59.88,32.86,64.26,31.97z"/>
	<path class="st2" d="M85.73,27.21c0.27,0.71,0.31,1.44,0.3,2.2c-0.01,9.45-0.01,18.9,0,28.35c0,0.75-0.01,1.49-0.32,2.19
		c0.3,1.21-0.54,1.89-1.24,2.63c-0.44,0.46-0.88,0.9-1.33,1.35c-5.72,5.66-11.39,11.36-17.06,17.06c-0.75,0.71-1.42,1.51-2.25,2.14
		c-0.5,0.38-1.06,0.7-1.74,0.43c-0.7,0.32-1.44,0.33-2.19,0.33c-9.45-0.01-18.89-0.01-28.34,0c-0.75,0-1.49,0-2.19-0.33
		c-1.22,0.31-1.89-0.54-2.63-1.24c-0.46-0.43-0.9-0.89-1.35-1.33C19.74,75.28,14.03,69.6,8.33,63.93c-0.77-0.82-1.67-1.54-2.25-2.52
		c-0.32-0.53-0.62-1.09-0.34-1.75c-0.1-0.5-0.28-1.01-0.28-1.51c0-10.21,0.02-20.42,0.04-30.63c0.12-1.99,1.69-3.01,2.87-4.28
		c5.7-5.66,11.38-11.35,17.04-17.05c0.78-0.73,1.45-1.57,2.32-2.19c0.49-0.35,1.05-0.66,1.7-0.35c0.69-0.38,1.44-0.35,2.19-0.35
		c9.42,0,18.85,0,28.27,0c0.75,0,1.5,0.01,2.19,0.34c1.22-0.33,1.9,0.54,2.64,1.23c0.46,0.43,0.91,0.89,1.36,1.33
		c5.66,5.72,11.36,11.38,17.06,17.06c0.7,0.75,1.5,1.42,2.13,2.24C85.65,25.98,85.96,26.54,85.73,27.21z"/>
	<path class="st0" d="M25.6,80.7c1.32,0.88,2.06,2.52,3.79,2.86c-0.32,0.51-0.83,0.31-1.26,0.31c-7.1,0.01-14.21-0.01-21.31,0.03
		c-0.99,0.01-1.41-0.15-1.4-1.29c0.06-7.28,0.03-14.55,0.03-21.83c0-0.39-0.1-0.82,0.28-1.12c0.29,1.83,1.91,2.73,2.89,4.08
		c0.45,0.84,0.51,1.75,0.51,2.69c-0.01,3.92-0.02,7.85,0.01,11.77c0.01,1.82,0.18,1.98,1.99,1.99c3.92,0.03,7.85,0.01,11.77,0.01
		C23.84,80.19,24.76,80.24,25.6,80.7z"/>
	<path class="st0" d="M29.44,3.64c-1.74,0.32-2.55,1.91-3.84,2.84c-0.84,0.47-1.75,0.52-2.69,0.52c-3.92,0-7.85-0.02-11.77,0.01
		C9.32,7.01,9.16,7.18,9.14,8.99c-0.03,3.92-0.01,7.85-0.01,11.77c0,0.93-0.05,1.85-0.51,2.69c-1.11,1.3-2.47,2.41-3.13,4.06
		C5.48,19.84,5.48,12.16,5.43,4.48c0-0.86,0.17-1.21,1.13-1.2c7.33,0.04,14.66,0.02,21.99,0.03C28.88,3.31,29.27,3.2,29.44,3.64z"/>
	<path class="st0" d="M65.89,6.47c-1.31-0.9-2.05-2.54-3.8-2.85c0.31-0.52,0.83-0.31,1.25-0.31c7.12-0.01,14.23,0,21.35-0.02
		c0.82,0,1.39-0.03,1.39,1.13c-0.05,7.29-0.03,14.58-0.03,21.87c0,0.34,0.04,0.7-0.32,0.92c-0.29-1.76-2.01-2.43-2.86-3.76
		c-0.48-0.83-0.52-1.75-0.52-2.68c0-3.93,0.02-7.85-0.01-11.78C82.32,7.18,82.16,7.01,80.35,7c-3.93-0.03-7.85-0.01-11.78-0.01
		C67.64,6.99,66.72,6.95,65.89,6.47z"/>
	<path class="st0" d="M62.1,83.57c1.74-0.32,2.46-2,3.79-2.86c0.84-0.46,1.75-0.51,2.69-0.51c3.92,0.01,7.85,0.02,11.77-0.01
		c1.82-0.01,1.98-0.18,1.99-1.99c0.03-3.92,0.01-7.85,0.01-11.77c0-0.93,0.05-1.85,0.51-2.69c0.86-1.33,2.54-2.04,2.86-3.78
		c0.52,0.31,0.33,0.82,0.33,1.25c0.01,7.12,0,14.24,0.02,21.35c0,0.87-0.06,1.36-1.17,1.35c-7.29-0.05-14.59-0.03-21.88-0.03
		C62.68,83.88,62.31,83.95,62.1,83.57z"/>
	<path class="st1" d="M70.44,69.67c-1.87,1.95-3.73,3.9-5.6,5.86c-1.11-0.17-0.77-1.13-0.9-1.76c-1.74-8.38-5.79-15.51-11.59-21.71
		c-1.04-1.12-2.43-1.83-3.39-2.74c0.96,9,5.18,16.64,11.57,23.21c0.81,0.83,1.77,1.48,2.67,2.21c0.47,0.38,1.14,0.68,0.91,1.5
		c-1.64,1.24-2.7,3.35-5.11,3.45c-3.83-0.39-7.55-1.43-11.43-1.58c-4.89-0.19-9.6,0.91-14.37,1.59c-2.59,0.31-3.81-1.78-5.46-3.11
		c-0.11-0.86,0.6-1.16,1.1-1.57c7.15-5.96,11.77-13.52,14.13-22.49c0.22-0.84,0.34-1.69,0.15-2.76c-2.38,1.48-4.2,3.42-5.94,5.44
		c-4.67,5.43-7.54,11.71-8.82,18.74c-0.1,0.57-0.17,1.15-0.43,1.67c-0.19,0.38-0.47,0.71-0.92,0.24c-1.74-1.83-3.49-3.65-5.23-5.48
		c-1.44-2.89-2.31-6.02-3.97-8.83c-1.8-3.05-3.8-5.93-6.36-8.39c-0.71-0.68-1.44-1.34-1.78-2.31c0-4.36,0-8.73-0.01-13.09
		c1-2.08,2.95-3.34,4.33-5.11c3.48-4.47,6.08-9.34,7.53-14.82c0.2-0.74,0.52-1.39,0.97-2c2.66-2.56,5.32-5.12,7.97-7.68
		c0.97-0.28,1.9-0.21,2.87,0.14c8.38,2.94,16.78,2.95,25.2,0.14c0.82-0.27,1.63-0.61,2.52-0.25c3.08,2.58,5.72,5.64,8.67,8.35
		c1.39,1.84,1.7,4.15,2.63,6.19c1.96,4.28,4.38,8.24,7.44,11.82c0.78,0.91,1.68,1.76,2.02,2.98l0.01,0.09
		c-0.27,1.38-0.1,2.76-0.12,4.15c-0.03,2.38-0.13,2.49-2.51,1.81c-2.62-0.75-5.24-1.46-7.96-1.72c-6.18-0.58-12.21,0.04-18.25,2.3
		c0.65,0.72,1.39,0.86,2.07,1.05c8.34,2.32,16.65,2.47,24.93-0.32c1.59-0.53,1.67-0.48,1.71,1.13c0.02,0.86-0.13,1.73,0.12,2.58
		c0,0.85,0,1.7-0.01,2.54c-0.13,0.82-0.52,1.49-1.11,2.09c-3.96,4.05-6.82,8.82-8.98,14.02C71.36,68.07,70.91,68.87,70.44,69.67z"/>
	<path class="st3" d="M27,75.84c0.99,0.28,0.63-0.52,0.69-0.92c1.73-10.7,6.9-19.34,15.49-25.94c0.07-0.06,0.2-0.05,0.41-0.09
		c0.34,3.46-0.78,6.6-2.15,9.62c-3.13,6.91-7.12,13.19-13.48,17.64c-0.12,0.08-0.16,0.28-0.24,0.43
		C27.35,76.47,27.09,76.23,27,75.84z"/>
	<path class="st3" d="M64.12,76.23c-1.94-1.95-4.2-3.55-6.01-5.67c-5.07-5.93-8.43-12.64-9.5-20.42c-0.03-0.23-0.06-0.46-0.06-0.69
		c0-0.16,0.04-0.33,0.08-0.65c2.94,1.46,5.04,3.75,6.91,6.25c4.51,6.03,8.09,12.49,8.98,20.14c0.01,0.12,0.21,0.21,0.32,0.32
		C64.75,75.91,64.46,76.1,64.12,76.23z"/>
	<path class="st3" d="M81.81,48.57c-0.43-1.19,0.5-2.94-0.49-3.53c-0.68-0.4-2.18,0.67-3.34,0.97c-7.69,2-15.36,1.8-22.99-0.33
		c-1.15-0.32-2.3-0.69-3.38-1.56c9.35-3.66,18.65-4.03,28.06-0.93c1.98,0.65,1.97,0.65,2-1.47c0.02-1.38,0.09-2.76,0.14-4.15
		C82.03,41.24,81.99,44.9,81.81,48.57z"/>
	<path class="st3" d="M22.47,15.8c-1.6,6.96-4.62,13.2-9.42,18.52c-1.08,1.19-2.27,2.28-3.41,3.42c-0.01-2.37-0.01-4.74-0.02-7.12
		c0-0.95,0.14-1.9,0.82-2.58C14.51,24.01,18.18,19.61,22.47,15.8z"/>
	<path class="st3" d="M81.8,37.48c-4.52-4.76-8.1-10.14-10.52-16.25c-0.61-1.54-1.05-3.15-1.57-4.73
		c3.96,3.46,7.27,7.55,11.02,11.21c0.92,0.9,1.05,2.18,1.09,3.38C81.88,33.21,81.81,35.35,81.8,37.48z"/>
	<path class="st3" d="M61.03,8.15c-3.27,0.91-6.46,2.08-9.86,2.51c-6.25,0.79-12.32,0.12-18.23-2.02c-0.8-0.29-1.58-0.74-2.5-0.52
		c0.76-0.64,1.68-0.65,2.59-0.65c8.46,0,16.93,0,25.39-0.01C59.36,7.47,60.25,7.59,61.03,8.15z"/>
	<path class="st3" d="M9.65,50.83c5.47,4.78,9.3,10.66,11.63,17.53c0.22,0.65,0.56,1.28,0.48,2c-3.78-3.74-7.57-7.46-11.33-11.23
		c-0.68-0.68-0.82-1.63-0.81-2.58C9.64,54.64,9.64,52.73,9.65,50.83z"/>
	<path class="st3" d="M70.44,69.67c1.7-5.74,4.83-10.67,8.54-15.28c0.9-1.12,1.88-2.18,2.83-3.27c0.01,1.67,0.08,3.33,0.01,5
		c-0.07,1.58-0.58,2.96-1.8,4.13C76.77,63.32,73.63,66.51,70.44,69.67z"/>
	<path class="st4" d="M33.2,79.69c8.6-2.84,17.2-2.83,25.8-0.01C50.4,79.68,41.8,79.68,33.2,79.69z"/>
	<path class="st3" d="M48.55,39.56c1.35-11.31,6.91-20.17,15.79-27.09C63.11,23.81,57.81,32.82,48.55,39.56z"/>
	<path class="st3" d="M27.57,12.37c7.1,3.11,15.76,17.79,16.11,27.31C35.92,34.61,28.96,24.49,27.57,12.37z"/>
	<path class="st3" d="M35.66,38.27c-3.71-0.81-7.02-1.22-10.36-1.24c-3.34-0.02-6.65,0.53-10.3,1.15
		c4.69-5.07,8.02-10.56,10.25-17.25C27.56,27.58,30.82,33.11,35.66,38.27z"/>
	<path class="st3" d="M35.76,13.85c7.04,1.51,13.62,1.49,20.64,0.02c-4.71,5.17-8.05,10.63-10.29,17.35
		C43.84,24.5,40.52,19,35.76,13.85z"/>
	<path class="st3" d="M46.09,57.32c2.27,6.73,5.53,12.28,10.39,17.4c-6.99-1.53-13.57-1.65-20.25-0.24
		C40.5,69.47,43.86,64.02,46.09,57.32z"/>
	<path class="st3" d="M77,38.14c-7-1.51-13.51-1.42-20.5,0.18c4.82-5.19,8.12-10.71,10.41-17.42C69.14,27.48,72.29,32.97,77,38.14z"
		/>
	<path class="st3" d="M9.62,44.28c10.49-4.1,20.49-4.21,30.92-0.03C30.16,48.54,20.16,48.34,9.62,44.28z"/>
	<path class="st3" d="M25.3,67.48c-2.33-6.49-5.42-12.07-10.12-17.02c6.69,1.32,13.19,1.34,19.82,0.16
		C30.76,55.56,27.51,60.97,25.3,67.48z"/>
	<path class="st3" d="M76.82,50.48c-4.44,5.09-7.75,10.48-9.88,16.69c-2.25-6.09-5.4-11.56-9.99-16.66
		C63.71,51.75,70.1,51.85,76.82,50.48z"/>
</g>
<g>
	<path class="st3" d="M11.79,111.16l-0.46-4.42H8.51l-0.43,4.42H5.74l2.97-20.22h2.42l2.97,20.22H11.79z M9.94,96.68l-1.17,7.67
		h2.31L9.94,96.68z"/>
	<path class="st3" d="M18.86,111.22c-1.22,0-2.19-0.38-2.92-1.14c-0.73-0.76-1.1-1.77-1.1-3.02v-1.17h2.34v1.17
		c0,0.49,0.16,0.91,0.48,1.25c0.32,0.34,0.72,0.51,1.2,0.51c0.48,0,0.88-0.17,1.23-0.51s0.51-0.76,0.51-1.25v-4.73
		c0-0.47-0.18-0.89-0.53-1.24c-0.35-0.35-0.76-0.53-1.21-0.53c-1.18,0-2.14-0.42-2.89-1.27c-0.75-0.85-1.13-1.88-1.13-3.09v-1.48
		c0-1.22,0.38-2.21,1.13-2.99c0.75-0.78,1.72-1.17,2.89-1.17c1.04,0,1.99,0.4,2.82,1.21c0.84,0.81,1.25,1.74,1.25,2.78v1.34H20.6
		v-1.17c0-0.49-0.17-0.91-0.51-1.25s-0.75-0.51-1.23-0.51c-0.48,0-0.87,0.17-1.2,0.51c-0.32,0.34-0.48,0.76-0.48,1.25v1.68
		c0,0.49,0.16,0.91,0.48,1.25c0.32,0.34,0.72,0.51,1.2,0.51c1.06,0,2.01,0.41,2.84,1.23s1.24,1.76,1.24,2.82v5.02
		c0,0.99-0.43,1.9-1.28,2.74C20.8,110.8,19.87,111.22,18.86,111.22z"/>
	<path class="st3" d="M28.84,93.37v17.82h-2.31V93.37h-2.88v-2.4h8.1v2.4H28.84z"/>
	<path class="st3" d="M38.4,111.19l-1.63-7.41h-1.88v7.41h-2.31V90.97h4.14c1.06,0,1.99,0.41,2.78,1.23
		c0.79,0.82,1.18,1.77,1.18,2.85v4.65c0,1.25-0.57,2.36-1.71,3.31l1.8,8.18H38.4z M38.34,95.11c0-0.51-0.17-0.94-0.5-1.27
		c-0.33-0.33-0.75-0.5-1.24-0.5h-1.71v8.01h1.71c0.49,0,0.91-0.17,1.24-0.51c0.33-0.34,0.5-0.76,0.5-1.25V95.11z"/>
	<path class="st3" d="M45.87,111.28c-1.06,0-2.01-0.41-2.84-1.23c-0.83-0.82-1.24-1.74-1.24-2.77V94.77c0-1.2,0.39-2.19,1.17-2.98
		c0.78-0.79,1.75-1.18,2.91-1.18c1.03,0,1.95,0.43,2.78,1.28c0.83,0.86,1.24,1.82,1.24,2.88v12.52c0,1.18-0.38,2.14-1.16,2.88
		C47.97,110.91,47.01,111.28,45.87,111.28z M47.55,94.77c0-0.44-0.16-0.84-0.48-1.2c-0.32-0.36-0.72-0.54-1.2-0.54
		c-0.48,0-0.89,0.17-1.24,0.5c-0.35,0.33-0.53,0.75-0.53,1.24v12.52c0,0.49,0.18,0.89,0.53,1.18c0.35,0.3,0.77,0.44,1.24,0.44
		c0.48,0,0.87-0.15,1.2-0.44c0.32-0.29,0.48-0.69,0.48-1.18V94.77z"/>
	<path class="st3" d="M55.85,93.37v17.82h-2.31V93.37h-2.88v-2.4h8.1v2.4H55.85z"/>
	<path class="st3" d="M63.61,111.28c-1.06,0-2.01-0.41-2.84-1.23c-0.83-0.82-1.24-1.74-1.24-2.77V94.77c0-1.2,0.39-2.19,1.17-2.98
		c0.78-0.79,1.75-1.18,2.91-1.18c1.03,0,1.95,0.43,2.78,1.28c0.83,0.86,1.24,1.82,1.24,2.88v12.52c0,1.18-0.38,2.14-1.16,2.88
		C65.7,110.91,64.75,111.28,63.61,111.28z M65.29,94.77c0-0.44-0.16-0.84-0.48-1.2c-0.32-0.36-0.72-0.54-1.2-0.54
		c-0.48,0-0.89,0.17-1.24,0.5c-0.35,0.33-0.53,0.75-0.53,1.24v12.52c0,0.49,0.18,0.89,0.53,1.18c0.35,0.3,0.77,0.44,1.24,0.44
		c0.48,0,0.87-0.15,1.2-0.44c0.32-0.29,0.48-0.69,0.48-1.18V94.77z"/>
	<path class="st3" d="M72.79,111.28c-1.06,0-2.01-0.41-2.84-1.23c-0.83-0.82-1.24-1.74-1.24-2.77V94.77c0-1.2,0.39-2.19,1.17-2.98
		c0.78-0.79,1.75-1.18,2.91-1.18c1.03,0,1.95,0.43,2.78,1.28c0.83,0.86,1.24,1.82,1.24,2.88v12.52c0,1.18-0.38,2.14-1.16,2.88
		C74.89,110.91,73.93,111.28,72.79,111.28z M74.47,94.77c0-0.44-0.16-0.84-0.48-1.2c-0.32-0.36-0.72-0.54-1.2-0.54
		s-0.89,0.17-1.24,0.5c-0.35,0.33-0.53,0.75-0.53,1.24v12.52c0,0.49,0.18,0.89,0.53,1.18c0.35,0.3,0.77,0.44,1.24,0.44
		s0.87-0.15,1.2-0.44c0.32-0.29,0.48-0.69,0.48-1.18V94.77z"/>
	<path class="st3" d="M77.95,111.16V90.94h2.31v17.85h5.79v2.37H77.95z"/>
</g>
</svg>
